<svg xmlns="http://www.w3.org/2000/svg" viewBox="0 0 24 24">
  <path d="M17.05 20.28c-.98.95-2.05.8-3.08.35-1.71-.61-2.64-.61-4.26 0-1.93.67-3.16.68-4.22-.35-5.52-4.08-4.85-11.11 1.77-11.41 1.67-.07 3.15.37 4.22.37 1.68-.07 2.76-.67 4.47-.67 1.8 0 3 .5 4.11.67 1.49.28 2.72-.12 3.53-.2 1.04-.16 2.12-.24 3.2.2 2.03.66 3.18 2.06 3.78 3.96-3.63 1.51-2.77 4.66-1.12 5.81.91.65 2.09.43 3.2-.2.19-.12.38-.25.55-.39a5.99 5.99 0 0 1-1.54 3.09zM12.03 7.25c-.15-2.23 1.66-4.07 3.74-4.25.32 2.32-1.85 4.08-3.74 4.25z" fill="currentColor"/>
</svg> 