<?xml version="1.0" standalone="no"?>
<!DOCTYPE svg PUBLIC "-//W3C//DTD SVG 20010904//EN"
 "http://www.w3.org/TR/2001/REC-SVG-20010904/DTD/svg10.dtd">
<svg version="1.0" xmlns="http://www.w3.org/2000/svg"
 width="1920.000000pt" height="1080.000000pt" viewBox="0 0 1920.000000 1080.000000"
 preserveAspectRatio="xMidYMid meet">

<g transform="translate(0.000000,1080.000000) scale(0.100000,-0.100000)"
fill="#000000" stroke="none">
<path d="M8831 6255 c-292 -82 -503 -487 -477 -915 13 -216 67 -391 167 -540
72 -108 139 -169 239 -218 72 -36 79 -37 180 -37 102 0 108 1 185 39 197 96
345 337 390 635 69 454 -121 906 -429 1024 -68 26 -186 31 -255 12z m255 -62
c78 -31 174 -115 236 -206 213 -314 215 -842 3 -1161 -77 -116 -197 -208 -300
-231 -29 -6 -29 -6 10 23 159 115 255 319 256 539 1 160 -38 285 -126 409
-159 222 -442 297 -675 179 -34 -17 -50 -21 -50 -13 0 7 15 49 33 93 63 156
176 294 288 350 75 39 93 43 181 44 62 1 91 -4 144 -26z m-83 -664 c50 -22 62
-100 24 -145 -18 -20 -33 -27 -64 -28 -69 -1 -114 56 -93 120 19 58 75 80 133
53z"/>
<path d="M10141 6254 c-280 -75 -481 -430 -481 -848 0 -382 161 -706 410 -825
71 -34 80 -36 175 -36 119 1 182 22 272 91 84 64 147 145 203 259 97 196 134
405 111 626 -51 494 -360 822 -690 733z m277 -73 c155 -79 276 -253 340 -490
23 -87 26 -113 26 -286 0 -174 -3 -198 -27 -290 -15 -57 -49 -146 -79 -205
-43 -85 -67 -119 -128 -180 -73 -74 -146 -119 -215 -134 l-30 -6 25 18 c100
69 188 190 233 321 42 119 48 267 18 395 -66 276 -295 476 -546 476 -83 0
-165 -19 -237 -56 l-51 -26 7 34 c11 56 102 230 153 292 55 68 152 139 221
161 31 10 77 14 137 12 78 -3 98 -8 153 -36z m-95 -661 c84 -66 4 -198 -95
-157 -92 39 -63 177 37 177 18 0 44 -9 58 -20z"/>
</g>
</svg>
