<?xml version="1.0" standalone="no"?>
<!DOCTYPE svg PUBLIC "-//W3C//DTD SVG 20010904//EN"
 "http://www.w3.org/TR/2001/REC-SVG-20010904/DTD/svg10.dtd">
<svg version="1.0" xmlns="http://www.w3.org/2000/svg"
 width="1004.000000pt" height="158.000000pt" viewBox="0 0 1004.000000 158.000000"
 preserveAspectRatio="xMidYMid meet">

<g transform="translate(0.000000,158.000000) scale(0.100000,-0.100000)"
fill="#000000" stroke="none">
<path d="M84 1489 l-29 -30 -3 -185 c-2 -122 0 -190 7 -198 8 -9 50 -15 131
-18 131 -6 164 -18 177 -66 10 -35 10 -369 0 -404 -13 -48 -46 -60 -177 -66
-81 -3 -123 -9 -131 -18 -7 -8 -9 -77 -7 -199 l3 -187 33 -29 32 -29 446 0
446 0 34 34 34 34 0 184 c0 130 -4 188 -12 196 -7 7 -47 12 -102 13 -163 2
-164 5 -14 81 72 37 135 65 140 62 4 -3 62 -113 128 -244 130 -258 175 -319
248 -340 21 -5 148 -10 291 -10 l253 0 34 34 34 34 0 204 c0 145 -3 207 -12
216 -8 8 -56 12 -147 12 -290 1 -332 17 -445 160 -63 81 -72 97 -59 107 8 6
101 55 206 107 201 101 249 115 383 116 33 0 56 5 64 14 8 11 11 67 8 201 l-3
187 -33 29 -32 29 -442 0 -442 0 -27 -26 -27 -25 -25 25 -26 26 -454 0 -453 0
-30 -31z m900 -75 c3 -9 6 -71 6 -138 l0 -123 -100 -6 c-111 -6 -160 -24 -194
-70 -18 -25 -21 -46 -24 -166 -4 -153 2 -171 57 -171 35 0 581 254 604 281 17
22 23 75 9 96 -13 21 -61 33 -128 33 l-64 0 0 128 c0 86 4 132 12 140 9 9 114
12 410 12 l398 0 10 -26 c6 -14 10 -76 10 -138 l0 -112 -107 -11 -108 -11
-234 -119 c-129 -65 -240 -124 -248 -131 -28 -28 -13 -61 92 -195 91 -118 111
-139 160 -162 65 -32 150 -44 323 -45 l122 0 0 -148 c0 -102 -4 -152 -12 -160
-13 -13 -422 -16 -466 -4 -52 15 -93 76 -212 313 -75 149 -129 245 -146 258
-50 40 -92 30 -279 -66 -93 -47 -173 -91 -177 -97 -17 -24 -7 -68 20 -96 33
-33 102 -50 202 -50 l70 0 0 -128 c0 -86 -4 -132 -12 -140 -9 -9 -115 -12
-415 -12 -388 0 -403 1 -413 19 -5 11 -10 73 -10 139 l0 119 105 5 c117 6 155
21 192 77 30 44 36 105 31 327 -3 177 -5 192 -27 230 -33 58 -74 75 -198 82
l-103 5 0 119 c0 66 5 128 10 139 10 18 26 19 419 19 364 0 410 -2 415 -16z
m208 -357 c4 -1 -91 -47 -210 -103 l-217 -100 -3 61 c-4 76 9 112 45 126 44
17 334 29 385 16z"/>
<path d="M3832 1508 c-5 -7 -12 -78 -14 -158 -4 -167 -14 -197 -75 -223 -21
-8 -64 -19 -95 -22 -49 -5 -62 -11 -88 -41 l-30 -35 0 -132 c0 -90 4 -137 12
-145 8 -8 55 -12 144 -12 l131 0 6 -177 c6 -199 20 -270 69 -345 53 -84 135
-137 245 -158 74 -15 360 -8 416 9 21 7 53 26 72 43 25 21 35 26 35 15 0 -8
14 -27 31 -41 l31 -26 413 0 413 0 31 26 31 26 31 -26 31 -26 424 0 424 0 32
29 33 29 5 154 5 153 63 -123 c69 -136 117 -196 177 -223 35 -16 68 -19 249
-19 196 0 211 1 247 22 40 22 59 60 59 118 0 23 1 23 24 -11 29 -43 86 -83
157 -112 48 -19 77 -22 274 -25 191 -3 233 -1 319 17 101 21 219 69 281 117
21 16 35 21 35 14 0 -26 72 -99 122 -124 45 -23 65 -26 149 -26 54 0 110 5
126 11 46 17 83 59 83 93 0 53 -33 260 -44 275 -7 9 -23 11 -57 7 -32 -4 -50
-2 -57 6 -6 8 -12 89 -14 193 -4 209 -13 239 -97 328 -55 58 -123 97 -216 123
-91 26 -602 32 -718 9 -108 -21 -175 -53 -238 -111 -57 -54 -76 -86 -95 -159
-24 -87 -19 -122 21 -162 l35 -35 -44 -48 c-25 -26 -50 -66 -57 -89 -12 -40
-13 -41 -58 -41 -74 0 -170 19 -217 43 -65 33 -235 171 -221 179 7 3 70 30
141 59 92 37 152 54 210 62 45 5 87 14 94 20 8 6 12 44 12 121 0 110 -1 113
-28 139 l-28 27 -411 0 -411 0 -26 -31 c-25 -29 -26 -37 -26 -140 0 -97 2
-110 19 -121 18 -11 12 -15 -55 -45 -41 -18 -77 -33 -79 -33 -2 0 -5 162 -7
359 l-3 360 -34 35 -35 36 -274 0 -274 0 -34 -34 -34 -34 0 -134 c0 -91 4
-138 12 -146 8 -8 47 -12 109 -12 111 0 152 -11 168 -46 16 -37 15 -580 -2
-614 -9 -18 -27 -29 -62 -38 -66 -16 -363 -16 -430 0 -77 20 -78 27 -85 331
l-5 259 -28 24 -28 24 -264 0 -265 0 -32 -29 -33 -29 -3 -137 c-2 -91 0 -141
8 -150 8 -9 45 -14 131 -17 153 -4 159 -9 159 -132 0 -45 -6 -92 -13 -106 -16
-32 -75 -48 -184 -49 -73 -1 -84 -3 -97 -23 -16 -22 -16 -22 -16 14 0 56 -17
63 -108 47 -86 -15 -223 -18 -264 -6 -45 12 -58 44 -65 156 l-6 101 169 0
c254 0 274 16 274 221 0 76 -4 119 -12 127 -9 9 -72 12 -220 12 l-208 0 0 181
0 181 -29 29 -29 29 -150 0 c-107 0 -152 -4 -160 -12z m278 -281 c4 -161 8
-200 20 -207 8 -5 107 -10 219 -10 l203 0 -4 -75 c-2 -42 -9 -80 -16 -87 -9
-9 -68 -14 -208 -18 -158 -4 -197 -8 -205 -20 -6 -9 -9 -71 -6 -160 7 -244 30
-266 284 -264 132 1 153 -1 157 -15 11 -36 10 -181 -1 -192 -36 -36 -283 -52
-394 -25 -120 28 -193 97 -225 213 -11 39 -18 119 -21 246 -4 145 -9 192 -20
203 -11 11 -45 14 -144 14 l-129 0 0 79 c0 93 6 100 83 108 78 8 146 47 177
103 23 41 25 58 28 178 l4 133 96 -3 97 -3 5 -198z m2071 186 c11 -13 15 -95
19 -400 5 -408 5 -402 53 -403 10 0 105 39 212 86 201 89 214 98 201 148 -7
30 -46 46 -112 46 l-55 0 3 58 3 57 370 0 370 0 3 -57 3 -57 -48 -6 c-73 -9
-139 -30 -295 -96 -146 -61 -168 -76 -168 -116 0 -25 25 -50 162 -160 129
-104 190 -133 306 -146 l94 -12 -4 -90 c-2 -49 -7 -96 -11 -102 -12 -19 -356
-18 -400 1 -50 21 -72 51 -158 217 -44 85 -88 162 -97 173 -31 33 -73 48 -121
44 -62 -6 -269 -97 -277 -121 -21 -65 42 -105 177 -114 l89 -6 0 -84 c0 -135
41 -123 -403 -123 -285 0 -386 3 -395 12 -8 8 -12 46 -12 104 l0 91 89 5 c100
6 152 26 185 71 20 27 21 43 24 362 3 323 2 336 -18 375 -30 59 -80 79 -192
80 l-88 0 0 78 c0 47 5 83 12 90 9 9 76 12 239 12 198 0 228 -2 240 -17z
m2254 -417 c88 -25 141 -55 186 -104 67 -71 73 -95 77 -292 1 -96 8 -188 14
-203 13 -33 54 -57 98 -57 16 0 30 -1 30 -2 0 -2 6 -40 14 -85 17 -105 14
-108 -99 -108 -107 0 -151 26 -192 115 -41 88 -75 91 -167 15 -63 -51 -163
-94 -273 -117 -83 -17 -126 -19 -278 -16 -138 4 -190 9 -225 22 -111 42 -160
107 -160 209 0 72 17 114 63 154 69 61 139 74 562 103 244 17 398 52 410 91
11 34 -4 68 -38 86 -29 16 -65 18 -357 18 -320 0 -326 0 -368 -23 -24 -13 -51
-36 -60 -53 -16 -27 -21 -29 -82 -29 -83 0 -91 8 -75 69 17 64 27 82 76 125
50 46 101 70 194 90 102 22 564 17 650 -8z m-3214 -246 c6 -277 11 -307 63
-348 33 -25 107 -42 186 -42 l60 0 0 -86 c0 -137 40 -124 -395 -124 -435 0
-395 -12 -395 123 l0 84 89 5 c100 6 152 26 185 71 18 25 21 46 24 160 3 125
2 134 -20 167 -36 54 -78 70 -185 70 l-93 0 0 71 c0 117 -16 110 248 107 l227
-3 6 -255z m2998 -14 c-2 -2 -76 -9 -164 -15 -88 -6 -191 -14 -230 -17 -75 -6
-80 0 -18 21 27 10 94 14 227 15 104 0 187 -2 185 -4z m-1643 -279 c10 -20 12
-28 3 -19 -8 7 -43 12 -93 12 -89 0 -91 9 -10 39 57 22 76 16 100 -32z"/>
<path d="M8420 639 c-88 -36 -259 -64 -468 -79 -159 -11 -225 -27 -242 -61 -6
-10 -10 -38 -10 -63 0 -91 63 -113 274 -96 179 15 338 60 471 134 68 39 75 48
75 106 0 62 -37 84 -100 59z m-202 -154 c-2 -3 -40 -14 -84 -25 -89 -24 -334
-40 -334 -23 0 16 33 22 205 34 88 6 162 13 164 15 2 2 16 4 29 4 14 0 23 -2
20 -5z"/>
<path d="M4974 1488 c-38 -18 -49 -54 -49 -157 0 -152 20 -171 185 -171 165 0
185 19 185 171 0 105 -11 140 -52 158 -30 14 -240 13 -269 -1z"/>
<path d="M2467 1095 c-94 -19 -167 -55 -228 -111 -57 -54 -76 -86 -95 -159
-24 -87 -19 -122 22 -163 l35 -35 -40 -41 c-59 -60 -71 -98 -71 -218 0 -96 2
-106 30 -156 37 -64 103 -114 185 -139 51 -15 95 -18 305 -18 224 0 252 2 323
23 84 24 183 70 235 110 25 19 32 21 32 9 0 -28 102 -122 146 -135 51 -15 213
-16 251 -1 46 17 83 59 83 93 0 56 -32 261 -43 275 -8 9 -24 11 -58 7 -32 -4
-50 -2 -57 6 -6 8 -12 87 -14 193 -4 208 -12 238 -93 324 -57 61 -107 91 -200
122 -66 21 -88 23 -375 25 -230 2 -322 0 -373 -11z m690 -98 c84 -24 143 -59
189 -110 63 -70 74 -117 74 -309 0 -174 7 -205 55 -226 14 -7 39 -12 55 -12
33 0 33 -1 48 -108 11 -77 4 -85 -84 -90 -115 -8 -190 41 -224 144 -20 60 -71
57 -154 -10 -55 -45 -128 -81 -218 -107 -103 -30 -422 -39 -518 -15 -139 36
-200 101 -200 215 0 76 16 117 63 158 69 61 139 74 562 103 244 17 398 52 410
91 11 34 -4 68 -38 86 -29 16 -65 18 -357 18 -320 0 -326 0 -368 -23 -24 -13
-51 -36 -60 -53 -16 -27 -21 -29 -82 -29 -80 0 -91 8 -78 62 13 58 31 90 79
132 51 46 108 73 197 91 95 20 575 14 649 -8z m-218 -261 c-2 -2 -76 -9 -164
-15 -88 -6 -191 -14 -230 -17 -75 -6 -80 0 -18 21 27 10 94 14 227 15 104 0
187 -2 185 -4z"/>
<path d="M3150 641 c-21 -12 -172 -47 -255 -60 -38 -5 -139 -15 -224 -21 -217
-16 -251 -33 -251 -120 0 -56 13 -76 57 -91 45 -15 219 -15 316 1 146 23 378
111 429 162 23 23 25 100 2 122 -17 17 -50 20 -74 7z m-211 -155 c-2 -2 -42
-14 -89 -26 -94 -25 -330 -41 -330 -22 0 15 31 20 205 33 88 6 162 13 164 15
6 5 55 5 50 0z"/>
<path d="M9628 435 c-35 -19 -48 -66 -48 -173 0 -90 16 -144 48 -161 27 -15
264 -14 295 0 38 17 47 51 47 175 0 114 0 116 -29 145 l-29 29 -129 0 c-93 -1
-135 -5 -155 -15z"/>
</g>
</svg>
